<svg xmlns="http://www.w3.org/2000/svg" version="1.1" xmlns:xlink="http://www.w3.org/1999/xlink" xmlns:svgjs="http://svgjs.dev/svgjs" width="1000" height="1000" viewBox="0 0 1000 1000"><rect width="1000" height="1000" fill="#ffffff"></rect><g transform="matrix(0.7,0,0,0.7,149.57576875542065,382.51973767383026)"><svg viewBox="0 0 396 133" data-background-color="#ffffff" preserveAspectRatio="xMidYMid meet" height="335" width="1000" xmlns="http://www.w3.org/2000/svg" xmlns:xlink="http://www.w3.org/1999/xlink"><g id="tight-bounds" transform="matrix(1,0,0,1,0.24000632449511272,0.13060841302095128)"><svg viewBox="0 0 395.5199999999999 132.73879504377834" height="132.73879504377834" width="395.5199999999999"><g><svg viewBox="0 0 728.4105491144687 244.4587848569769" height="132.73879504377834" width="395.5199999999999"><g><rect width="6.322791301417405" height="118.51475097986575" x="310.01594812347696" y="62.972016938555576" fill="#000000" opacity="1" stroke-width="0" stroke="transparent" fill-opacity="1" class="rect-o-0" data-fill-palette-color="primary" rx="1%" id="o-0" data-palette-color="#2a2929"></rect></g><g transform="matrix(1,0,0,1,332.89054911446874,63.26682975193832)"><svg viewBox="0 0 395.52 117.92512535310027" height="117.92512535310027" width="395.52"><g><svg viewBox="0 0 395.52 117.92512535310027" height="117.92512535310027" width="395.52"><g><svg viewBox="0 0 395.52 70.1122083124687" height="70.1122083124687" width="395.52"><g transform="matrix(1,0,0,1,0,0)"><svg width="395.52" viewBox="4.150000095367432 -35 199.29000854492188 35.400001525878906" height="70.1122083124687" data-palette-color="#2a2929"><g class="undefined-text-0" data-fill-palette-color="primary" id="text-0"><path d="M10.45-5.45L26.05-5.45 26.05 0 4.15 0 4.15-34.65 10.45-34.65 10.45-5.45ZM30.85 0L30.85-34.65 37.15-34.65 37.15 0 30.85 0ZM55.9 0.4L55.9 0.4Q53.15 0.4 50.34 0.23 47.55 0.05 45.45-0.5L45.45-0.5 45.45-34.15Q46.55-34.35 47.8-34.52 49.05-34.7 50.34-34.8 51.65-34.9 52.92-34.95 54.2-35 55.34-35L55.34-35Q58.5-35 61.2-34.52 63.9-34.05 65.87-32.95 67.84-31.85 68.95-30.05 70.05-28.25 70.05-25.6L70.05-25.6Q70.05-23.15 68.87-21.4 67.7-19.65 65.59-18.6L65.59-18.6Q68.75-17.55 70.25-15.5 71.75-13.45 71.75-10.3L71.75-10.3Q71.75-4.95 67.84-2.27 63.95 0.4 55.9 0.4ZM57.2-15.6L51.65-15.6 51.65-5.05Q52.7-4.95 53.9-4.9 55.09-4.85 56.09-4.85L56.09-4.85Q58.05-4.85 59.72-5.1 61.4-5.35 62.62-5.98 63.84-6.6 64.57-7.65 65.3-8.7 65.3-10.35L65.3-10.35Q65.3-13.3 63.15-14.45 61-15.6 57.2-15.6L57.2-15.6ZM51.65-29.65L51.65-20.55 56.09-20.55Q59.7-20.55 61.75-21.58 63.8-22.6 63.8-25.25L63.8-25.25Q63.8-27.75 61.67-28.8 59.55-29.85 56.15-29.85L56.15-29.85Q54.7-29.85 53.57-29.8 52.45-29.75 51.65-29.65L51.65-29.65ZM87.84-35L87.84-35Q95.34-35 99.32-32.25 103.29-29.5 103.29-23.85L103.29-23.85Q103.29-16.8 96.34-14.3L96.34-14.3Q97.29-13.15 98.49-11.5 99.69-9.85 100.94-7.93 102.19-6 103.34-3.98 104.49-1.95 105.39 0L105.39 0 98.34 0Q97.39-1.8 96.29-3.63 95.19-5.45 94.07-7.18 92.94-8.9 91.84-10.43 90.74-11.95 89.79-13.15L89.79-13.15Q89.09-13.1 88.59-13.1 88.09-13.1 87.64-13.1L87.64-13.1 84.59-13.1 84.59 0 78.29 0 78.29-34.15Q80.59-34.65 83.19-34.83 85.79-35 87.84-35ZM88.29-29.55L88.29-29.55Q86.29-29.55 84.59-29.4L84.59-29.4 84.59-18.2 87.34-18.2Q89.64-18.2 91.39-18.45 93.14-18.7 94.32-19.35 95.49-20 96.09-21.1 96.69-22.2 96.69-23.9L96.69-23.9Q96.69-25.5 96.09-26.6 95.49-27.7 94.37-28.35 93.24-29 91.69-29.28 90.14-29.55 88.29-29.55ZM140.09 0L133.29 0Q132.59-2.05 131.84-4.05 131.09-6.05 130.39-8.15L130.39-8.15 115.79-8.15Q115.09-6.05 114.37-4.03 113.64-2 112.94 0L112.94 0 106.39 0Q108.34-5.55 110.09-10.25 111.84-14.95 113.52-19.15 115.19-23.35 116.84-27.15 118.49-30.95 120.24-34.65L120.24-34.65 126.19-34.65Q127.94-30.95 129.59-27.15 131.24-23.35 132.92-19.15 134.59-14.95 136.37-10.25 138.14-5.55 140.09 0L140.09 0ZM123.09-27.95L123.09-27.95Q121.94-25.3 120.47-21.5 118.99-17.7 117.39-13.25L117.39-13.25 128.79-13.25Q127.19-17.7 125.69-21.55 124.19-25.4 123.09-27.95ZM154.04-35L154.04-35Q161.54-35 165.51-32.25 169.49-29.5 169.49-23.85L169.49-23.85Q169.49-16.8 162.54-14.3L162.54-14.3Q163.49-13.15 164.69-11.5 165.89-9.85 167.14-7.93 168.39-6 169.54-3.98 170.69-1.95 171.59 0L171.59 0 164.54 0Q163.59-1.8 162.49-3.63 161.39-5.45 160.26-7.18 159.14-8.9 158.04-10.43 156.94-11.95 155.99-13.15L155.99-13.15Q155.29-13.1 154.79-13.1 154.29-13.1 153.84-13.1L153.84-13.1 150.79-13.1 150.79 0 144.49 0 144.49-34.15Q146.79-34.65 149.39-34.83 151.99-35 154.04-35ZM154.49-29.55L154.49-29.55Q152.49-29.55 150.79-29.4L150.79-29.4 150.79-18.2 153.54-18.2Q155.84-18.2 157.59-18.45 159.34-18.7 160.51-19.35 161.69-20 162.29-21.1 162.89-22.2 162.89-23.9L162.89-23.9Q162.89-25.5 162.29-26.6 161.69-27.7 160.56-28.35 159.44-29 157.89-29.28 156.34-29.55 154.49-29.55ZM188.14-19.3L188.14-19.3Q190.39-23.05 192.54-26.9 194.69-30.75 196.44-34.65L196.44-34.65 203.44-34.65Q200.64-29.35 197.61-24.13 194.59-18.9 191.14-13.6L191.14-13.6 191.14 0 184.84 0 184.84-13.5Q181.39-18.85 178.34-24.1 175.29-29.35 172.49-34.65L172.49-34.65 179.89-34.65Q181.64-30.75 183.74-26.9 185.84-23.05 188.14-19.3Z" fill="#000000" data-fill-palette-color="primary"></path></g></svg></g></svg></g><g transform="matrix(1,0,0,1,0,86.66401800204305)"><svg viewBox="0 0 232.209792 31.261107351057216" height="31.261107351057216" width="232.209792"><g transform="matrix(1,0,0,1,0,0)"><svg width="232.209792" viewBox="4 -40.45000076293945 353.1648864746094 47.54999923706055" height="31.261107351057216" data-palette-color="#61777f"><path d="M14.85-5L21.65-5Q23.5-5 24.25-6.05 25-7.1 25-8.4L25-8.4 25-31.3Q25-32.55 24.25-33.6 23.5-34.65 21.65-34.65L21.65-34.65 9.95-34.65 9.9-2.05Q9.9-0.95 9.05-0.3 8.2 0.35 6.95 0.35L6.95 0.35Q4 0.35 4-2.05L4-2.05 4-36.7Q4-38.5 4.93-39.1 5.85-39.7 7.15-39.7L7.15-39.7 22.9-39.7Q24.2-39.7 25.6-39.15 27-38.6 28.3-37.75L28.3-37.75 28.25-37.75Q29.55-36.8 30.25-35.27 30.95-33.75 30.95-31.75L30.95-31.75 30.95-8Q30.95-3.95 28.25-1.95L28.25-1.95Q26.95-1 25.58-0.48 24.2 0.05 22.9 0.05L22.9 0.05 14.5 0.05Q13.65 0.05 13.18-0.65 12.7-1.35 12.7-2.5L12.7-2.5Q12.7-5 14.85-5L14.85-5ZM43.7-27.9L43.7-2.1Q43.7 0.3 40.95 0.3L40.95 0.3Q38.15 0.3 38.15-2.1L38.15-2.1 38.15-27.9Q38.15-30.3 40.95-30.3L40.95-30.3Q43.7-30.3 43.7-27.9L43.7-27.9ZM44.75-36.6L44.75-36.6Q44.75-35 43.65-33.9 42.55-32.8 40.95-32.8L40.95-32.8Q39.35-32.8 38.22-33.9 37.1-35 37.1-36.6L37.1-36.6Q37.1-38.25 38.22-39.35 39.35-40.45 40.95-40.45L40.95-40.45Q42.55-40.45 43.65-39.35 44.75-38.25 44.75-36.6ZM64.75-3.5L58.7-3.5Q57.4-3.5 56.02-3.95 54.65-4.4 53.35-5.25L53.35-5.25Q50.65-7 50.65-11.15L50.65-11.15 50.65-22.45Q50.65-24.55 51.37-26.05 52.1-27.55 53.35-28.4L53.35-28.4Q54.65-29.2 56-29.65 57.35-30.1 58.65-30.1L58.65-30.1 67.05-30.1Q68.3-30.1 69.65-29.55 71-29 72.15-28.15L72.15-28.15Q73.3-27.2 74-25.65 74.7-24.1 74.7-22.15L74.7-22.15 74.7-0.95Q74.7 1.15 74.02 2.63 73.34 4.1 72.15 5.1L72.15 5.1Q71 6.05 69.67 6.58 68.34 7.1 67.05 7.1L67.05 7.1 58.65 7.1Q56 7.1 53.3 5.55L53.3 5.55Q51.9 4.75 51.27 3.5 50.65 2.25 50.65 0.6L50.65 0.6 50.65 0Q50.65-1 51.3-1.6 51.95-2.2 53.35-2.2L53.35-2.2Q56.15-1.9 56.15 0L56.15 0 56.15 0.55Q56.15 1.1 56.92 1.75 57.7 2.4 59.55 2.4L59.55 2.4 65.8 2.4Q67.65 2.4 68.42 1.35 69.2 0.3 69.2-1L69.2-1 69.2-22.1Q69.2-23.35 68.42-24.38 67.65-25.4 65.8-25.4L65.8-25.4 59.55-25.4Q57.7-25.4 56.92-24.38 56.15-23.35 56.15-22.1L56.15-22.1 56.15-11.55Q56.15-10.3 56.92-9.22 57.7-8.15 59.55-8.15L59.55-8.15 64.75-8.15Q66.55-8.15 66.55-5.85L66.55-5.85Q66.55-4.8 66.12-4.15 65.7-3.5 64.75-3.5L64.75-3.5ZM87.04-27.9L87.04-2.1Q87.04 0.3 84.29 0.3L84.29 0.3Q81.49 0.3 81.49-2.1L81.49-2.1 81.49-27.9Q81.49-30.3 84.29-30.3L84.29-30.3Q87.04-30.3 87.04-27.9L87.04-27.9ZM88.09-36.6L88.09-36.6Q88.09-35 86.99-33.9 85.89-32.8 84.29-32.8L84.29-32.8Q82.69-32.8 81.57-33.9 80.44-35 80.44-36.6L80.44-36.6Q80.44-38.25 81.57-39.35 82.69-40.45 84.29-40.45L84.29-40.45Q85.89-40.45 86.99-39.35 88.09-38.25 88.09-36.6ZM104.69-25.4L100.54-25.4 100.54-7.2Q100.54-5.9 101.09-5.2 101.64-4.5 103.44-4.5L103.44-4.5 104.74-4.5Q106.69-4.5 106.59-2.2L106.59-2.2Q106.59 0.15 104.74 0.15L104.74 0.15 103.09 0.15Q101.49 0.15 100.09-0.28 98.69-0.7 97.39-1.5L97.39-1.5 97.39-1.45Q94.94-3.05 94.94-7.15L94.94-7.15 94.94-25.4 92.99-25.4Q91.19-25.4 91.09-27.75L91.09-27.75Q91.09-30.1 92.99-30.1L92.99-30.1 94.94-30.1 94.94-35.45Q94.94-37.85 97.79-37.85L97.79-37.85Q100.54-37.85 100.54-35.45L100.54-35.45 100.54-30.1 104.69-30.1Q106.64-30.1 106.54-27.75L106.54-27.75Q106.54-25.4 104.69-25.4L104.69-25.4ZM125.04 0L118.49 0Q116.94 0 115.54-0.43 114.14-0.85 112.84-1.65L112.84-1.65 112.84-1.6Q110.39-3.15 110.39-7.3L110.39-7.3 110.39-9.75Q110.39-11.8 111.11-13.33 111.84-14.85 113.14-15.75L113.14-15.75 113.09-15.75Q114.34-16.6 115.74-17.03 117.14-17.45 118.44-17.45L118.44-17.45 129.49-17.45 129.49-22.1Q129.49-23.35 128.71-24.38 127.94-25.4 126.09-25.4L126.09-25.4 120.24-25.4Q118.34-25.4 117.61-24.48 116.89-23.55 116.89-22.3L116.89-22.3 116.89-21.9Q116.89-19.3 114.09-19.3L114.09-19.3Q111.29-19.3 111.29-21.9L111.29-21.9 111.29-22.35Q111.29-24.4 112.01-25.8 112.74-27.2 113.99-28.15L113.99-28.15 113.94-28.15Q115.24-29 116.66-29.55 118.09-30.1 119.39-30.1L119.39-30.1 126.99-30.1Q128.24-30.1 129.66-29.55 131.09-29 132.34-28.15L132.34-28.15 132.29-28.15Q133.59-27.2 134.29-25.68 134.99-24.15 134.99-22.15L134.99-22.15 134.99-2.1Q134.99 0.3 132.24 0.3L132.24 0.3Q131.69 0.3 131.21 0.25 130.74 0.2 130.36-0.03 129.99-0.25 129.76-0.68 129.54-1.1 129.54-1.8L129.54-1.8 129.49-12.75 119.39-12.75Q118.29-12.75 117.69-12.5 117.09-12.25 116.74-11.7L116.74-11.7Q116.34-10.85 116.16-10.38 115.99-9.9 115.99-9.3L115.99-9.3 115.99-7.35Q115.99-6.05 116.76-5.38 117.54-4.7 119.44-4.7L119.44-4.7 125.04-4.7Q126.89-4.7 126.89-2.35L126.89-2.35Q126.89-1.35 126.44-0.68 125.99 0 125.04 0L125.04 0ZM147.13-37.8L147.13-1.95Q147.13 0.4 144.38 0.4L144.38 0.4Q141.58 0.4 141.58-1.95L141.58-1.95 141.58-37.8Q141.58-40.15 144.38-40.15L144.38-40.15Q147.13-40.15 147.13-37.8L147.13-37.8ZM193.63-1.2L182.63-34.8 171.68-1.2 171.68-1.25Q171.38-0.5 170.85-0.03 170.33 0.45 169.58 0.45L169.58 0.45Q169.18 0.45 168.8 0.38 168.43 0.3 168.03 0.2L168.03 0.2 168.08 0.2Q165.23-0.7 165.98-3L165.98-3 177.38-37.65Q177.63-38.45 178.25-39 178.88-39.55 179.73-39.65L179.73-39.65Q180.58-39.8 181.38-39.88 182.18-39.95 182.63-39.95L182.63-39.95Q183.08-39.95 183.88-39.88 184.68-39.8 185.53-39.7L185.53-39.7Q186.23-39.6 186.91-38.95 187.58-38.3 187.93-37.65L187.93-37.65Q190.73-29.05 193.6-20.33 196.48-11.6 199.28-3L199.28-3Q199.98-0.7 197.18 0.2L197.18 0.2Q196.78 0.3 196.45 0.38 196.13 0.45 195.73 0.45L195.73 0.45Q195.03 0.45 194.45-0.03 193.88-0.5 193.63-1.25L193.63-1.25 193.63-1.2ZM186.38-12L186.38-12Q186.38-10.4 185.25-9.28 184.13-8.15 182.53-8.15L182.53-8.15Q180.93-8.15 179.83-9.28 178.73-10.4 178.73-12L178.73-12Q178.73-13.6 179.83-14.73 180.93-15.85 182.53-15.85L182.53-15.85Q184.13-15.85 185.25-14.73 186.38-13.6 186.38-12ZM208.83-25.4L208.78-2.1Q208.78-0.9 207.93-0.3 207.08 0.3 206.08 0.3L206.08 0.3Q203.33 0.3 203.33-2.1L203.33-2.1 203.33-37.6Q203.33-40 206.08-40L206.08-40Q208.83-40 208.83-37.6L208.83-37.6 208.83-30.1 219.38-30.1Q221.93-30.1 224.68-28.2L224.68-28.2Q227.38-26.3 227.38-22.2L227.38-22.2 227.38-7.3Q227.38-3.15 224.93-1.6L224.93-1.6Q222.48 0 219.33 0L219.33 0 213.43 0Q211.63 0 211.53-2.35L211.53-2.35Q211.53-4.7 213.43-4.7L213.43-4.7 218.43-4.7Q220.28-4.7 221.08-5.38 221.88-6.05 221.88-7.35L221.88-7.35 221.88-21.75Q221.88-23.05 221.08-24.25L221.08-24.25 221.13-24.2Q220.48-25.4 218.48-25.4L218.48-25.4 208.83-25.4ZM238.93-22.75L238.93-2.1Q238.93 0.3 236.18 0.3L236.18 0.3Q233.33 0.3 233.33-2.1L233.33-2.1 233.33-22.8Q233.33-26.9 235.78-28.5L235.78-28.5Q238.23-30.1 241.43-30.1L241.43-30.1 247.13-30.1Q248.98-30.1 248.98-27.75L248.98-27.75Q249.08-25.4 247.13-25.4L247.13-25.4 241.83-25.4Q240.03-25.4 239.48-24.7 238.93-24 238.93-22.75L238.93-22.75ZM258.72-22.15L258.72-8Q258.72-6.8 259.5-5.75 260.27-4.7 262.12-4.7L262.12-4.7 268.37-4.7Q270.22-4.7 271-5.63 271.77-6.55 271.77-7.75L271.77-7.75 271.77-8.3Q271.77-10.65 274.52-10.65L274.52-10.65Q277.27-10.65 277.27-8.3L277.27-8.3 277.27-7.7Q277.27-5.6 276.6-4.25 275.92-2.9 274.57-1.9L274.57-1.9Q271.92 0 269.27 0L269.27 0 260.87 0Q258.22 0 255.72-1.9L255.72-1.9Q254.52-2.9 253.87-4.42 253.22-5.95 253.22-7.95L253.22-7.95 253.22-22.2Q253.22-26.25 255.72-28.2L255.72-28.2Q256.97-29.1 258.3-29.63 259.62-30.15 260.87-30.15L260.87-30.15 269.27-30.15Q270.47-30.15 271.92-29.68 273.37-29.2 274.62-28.4L274.62-28.4Q275.82-27.55 276.55-26.05 277.27-24.55 277.27-22.5L277.27-22.5 277.27-15.75Q277.27-14.6 276.6-13.7 275.92-12.8 274.12-12.8L274.12-12.8 263.32-12.8Q261.52-12.8 261.42-15.15L261.42-15.15Q261.42-17.5 263.32-17.5L263.32-17.5 271.82-17.5 271.77-22.15Q271.77-23.4 271-24.43 270.22-25.45 268.37-25.45L268.37-25.45 262.12-25.45Q260.27-25.45 259.5-24.43 258.72-23.4 258.72-22.15L258.72-22.15ZM289.12-25.4L289.12-2.1Q289.12 0.3 286.37 0.3L286.37 0.3Q283.62 0.3 283.62-2.1L283.62-2.1 283.62-37.6Q283.62-40 286.37-40L286.37-40Q289.12-40 289.12-37.6L289.12-37.6 289.12-30.1 299.67-30.1Q302.22-30.1 304.97-28.2L304.97-28.2Q307.67-26.3 307.67-22.2L307.67-22.2 307.67-2.1Q307.67 0.3 304.92 0.3L304.92 0.3Q302.17 0.3 302.17-2.1L302.17-2.1 302.17-21.75Q302.17-23.05 301.37-24.25L301.37-24.25 301.42-24.2Q300.77-25.4 298.77-25.4L298.77-25.4 289.12-25.4ZM322.27-30.1L330.27-30.1Q331.57-30.1 332.94-29.55 334.32-29 335.62-28.15L335.62-28.15 335.57-28.15Q336.87-27.2 337.57-25.68 338.27-24.15 338.27-22.15L338.27-22.15 338.27-7.95Q338.27-3.85 335.57-1.9L335.57-1.9Q332.92 0 330.27 0L330.27 0 322.27 0Q320.97 0 319.62-0.45 318.27-0.9 316.97-1.9L316.97-1.9Q314.27-3.8 314.27-7.95L314.27-7.95 314.27-22.15Q314.27-24.15 314.97-25.68 315.67-27.2 316.97-28.15L316.97-28.15 316.92-28.15Q318.17-29 319.57-29.55 320.97-30.1 322.27-30.1L322.27-30.1ZM323.17-4.7L329.37-4.7Q331.22-4.7 331.99-5.75 332.77-6.8 332.77-8L332.77-8 332.77-22.1Q332.77-23.35 331.99-24.38 331.22-25.4 329.37-25.4L329.37-25.4 323.17-25.4Q321.32-25.4 320.54-24.38 319.77-23.35 319.77-22.1L319.77-22.1 319.77-8Q319.77-6.8 320.54-5.75 321.32-4.7 323.17-4.7L323.17-4.7ZM355.26-25.4L351.12-25.4 351.12-7.2Q351.12-5.9 351.66-5.2 352.21-4.5 354.01-4.5L354.01-4.5 355.31-4.5Q357.26-4.5 357.16-2.2L357.16-2.2Q357.16 0.15 355.31 0.15L355.31 0.15 353.66 0.15Q352.06 0.15 350.66-0.28 349.26-0.7 347.96-1.5L347.96-1.5 347.96-1.45Q345.51-3.05 345.51-7.15L345.51-7.15 345.51-25.4 343.56-25.4Q341.76-25.4 341.66-27.75L341.66-27.75Q341.66-30.1 343.56-30.1L343.56-30.1 345.51-30.1 345.51-35.45Q345.51-37.85 348.37-37.85L348.37-37.85Q351.12-37.85 351.12-35.45L351.12-35.45 351.12-30.1 355.26-30.1Q357.21-30.1 357.12-27.75L357.12-27.75Q357.12-25.4 355.26-25.4L355.26-25.4Z" opacity="1" transform="matrix(1,0,0,1,0,0)" fill="#000000" class="undefined-text-1" data-fill-palette-color="secondary" id="text-1"></path></svg></g></svg></g></svg></g></svg></g><g><svg viewBox="0 0 293.4641384339026 244.4587848569769" height="244.4587848569769" width="293.4641384339026"><g><svg xmlns="http://www.w3.org/2000/svg" xmlns:xlink="http://www.w3.org/1999/xlink" version="1.1" x="0" y="0" viewBox="20.00246238708496 22.953004837036133 64.93553924560547 54.092002868652344" enable-background="new 0 0 100 100" xml:space="preserve" height="244.4587848569769" width="293.4641384339026" class="icon-icon-0" data-fill-palette-color="accent" id="icon-0"><g fill="#3b484d" data-fill-palette-color="accent"><path d="M70.907 48.925c3.273-0.662 6.546-1.866 9.82-2.528 0.064-0.014 0.124-0.05 0.168-0.104 0.045-0.054 0.07-0.119 0.07-0.182 0-0.224 0-0.445 0-0.668 0-0.131-0.107-0.218-0.239-0.19-3.273 0.662-6.546 1.865-9.82 2.527-0.133 0.027-0.24 0.154-0.24 0.287 0 0.222-0.001 0.444-0.001 0.666 0.002 0.064 0.025 0.121 0.071 0.156C70.781 48.925 70.843 48.938 70.907 48.925z" fill="#000000" data-fill-palette-color="accent"></path><path d="M80.895 47.769c-0.044-0.036-0.104-0.05-0.168-0.036-3.273 0.663-6.546 1.866-9.82 2.528-0.133 0.027-0.239 0.154-0.24 0.287 0 0.222 0 0.444 0 0.666 0 0.063 0.024 0.119 0.07 0.156 0.045 0.035 0.105 0.049 0.168 0.036 3.274-0.662 6.548-1.867 9.822-2.529 0.066-0.014 0.126-0.052 0.168-0.104 0.044-0.051 0.07-0.116 0.071-0.182 0-0.223 0-0.445 0-0.668C80.965 47.86 80.94 47.805 80.895 47.769z" fill="#000000" data-fill-palette-color="accent"></path><path d="M70.907 53.887c3.273-0.663 6.546-1.866 9.82-2.529 0.065-0.014 0.125-0.051 0.168-0.104 0.043-0.051 0.07-0.115 0.07-0.182 0-0.223 0-0.444 0-0.667 0-0.063-0.025-0.119-0.07-0.155-0.044-0.036-0.104-0.049-0.168-0.036-3.273 0.663-6.546 1.867-9.82 2.529-0.127 0.026-0.24 0.16-0.24 0.287 0 0.223 0 0.444 0 0.666C70.667 53.827 70.774 53.913 70.907 53.887z" fill="#000000" data-fill-palette-color="accent"></path><path d="M83.424 39.514c-5.058 0.438-10.116 2.877-15.174 3.326-5.058-0.449-10.116-2.888-15.174-3.326-0.404-0.035-0.783 0.103-1.069 0.381-0.285 0.278-0.443 0.66-0.443 1.063 0 7.245 0 14.49 0 21.736 0 0.404 0.158 0.782 0.443 1.075 0.286 0.292 0.666 0.469 1.069 0.504 4.851 0.421 9.702 2.678 14.553 3.258 0.18 0.066 0.377 0.092 0.58 0.073 0.014-0.001 0.028-0.003 0.042-0.004 0.014 0.001 0.028 0.003 0.042 0.004 0.203 0.019 0.399-0.007 0.58-0.073 4.851-0.58 9.702-2.837 14.553-3.258 0.404-0.035 0.783-0.212 1.069-0.504 0.285-0.293 0.443-0.671 0.443-1.075 0-7.246 0-14.491 0-21.736 0-0.403-0.158-0.785-0.443-1.063C84.207 39.616 83.828 39.479 83.424 39.514zM66.697 64.38c-4.037-0.65-8.073-2.307-12.109-2.943 0-6.237 0.001-12.475 0.001-18.712 4.036 0.636 8.071 2.293 12.108 2.942C66.697 51.904 66.697 58.143 66.697 64.38zM69.803 64.38c0-6.237 0-12.476 0-18.713 4.037-0.649 8.072-2.307 12.108-2.942 0 6.237 0.001 12.475 0.001 18.712C77.876 62.073 73.84 63.729 69.803 64.38z" fill="#000000" data-fill-palette-color="accent"></path><path d="M55.773 46.396c3.273 0.662 6.546 1.866 9.82 2.528 0.064 0.013 0.125 0 0.17-0.036 0.045-0.035 0.069-0.092 0.071-0.156 0-0.222-0.001-0.444-0.001-0.666 0-0.133-0.106-0.26-0.24-0.287-3.273-0.662-6.546-1.865-9.82-2.527-0.131-0.027-0.239 0.06-0.239 0.19 0 0.223 0 0.444 0 0.668 0 0.062 0.025 0.128 0.07 0.182C55.649 46.347 55.709 46.383 55.773 46.396z" fill="#000000" data-fill-palette-color="accent"></path><path d="M55.773 48.877c3.273 0.662 6.548 1.867 9.822 2.529 0.063 0.013 0.123-0.001 0.168-0.036 0.045-0.037 0.07-0.093 0.07-0.156 0-0.222 0-0.444 0-0.666-0.001-0.133-0.107-0.26-0.24-0.287-3.273-0.662-6.546-1.865-9.82-2.528-0.064-0.014-0.124 0-0.168 0.036-0.045 0.036-0.07 0.092-0.07 0.154 0 0.223 0 0.445 0 0.668 0.001 0.065 0.027 0.131 0.071 0.182C55.647 48.825 55.708 48.863 55.773 48.877z" fill="#000000" data-fill-palette-color="accent"></path><path d="M65.593 53.887c0.133 0.026 0.24-0.06 0.24-0.191 0-0.222 0-0.443 0-0.666 0-0.127-0.113-0.261-0.24-0.287-3.273-0.662-6.546-1.866-9.82-2.529-0.064-0.013-0.124 0-0.168 0.036-0.045 0.036-0.07 0.092-0.07 0.155 0 0.223 0 0.444 0 0.667 0 0.066 0.027 0.131 0.07 0.182 0.043 0.054 0.103 0.091 0.168 0.104C59.047 52.021 62.32 53.224 65.593 53.887z" fill="#000000" data-fill-palette-color="accent"></path><path d="M70.907 56.25c3.273-0.662 6.546-1.866 9.82-2.529 0.064-0.013 0.124-0.051 0.168-0.104 0.045-0.054 0.07-0.119 0.07-0.183 0-0.222 0-0.444 0-0.667 0-0.131-0.107-0.219-0.239-0.191-3.273 0.662-6.546 1.866-9.82 2.528-0.133 0.026-0.24 0.155-0.24 0.287 0 0.222-0.001 0.445-0.001 0.666 0.002 0.064 0.025 0.12 0.071 0.156C70.781 56.249 70.843 56.263 70.907 56.25z" fill="#000000" data-fill-palette-color="accent"></path><path d="M80.895 55.093c-0.044-0.036-0.104-0.048-0.168-0.035-3.273 0.662-6.546 1.866-9.82 2.527-0.133 0.028-0.239 0.155-0.24 0.287 0 0.223 0 0.444 0 0.667 0 0.062 0.024 0.12 0.07 0.156 0.045 0.035 0.105 0.048 0.168 0.035 3.274-0.662 6.548-1.866 9.822-2.527 0.066-0.015 0.126-0.054 0.168-0.104 0.044-0.053 0.07-0.116 0.071-0.183 0-0.224 0-0.445 0-0.667C80.965 55.186 80.94 55.128 80.895 55.093z" fill="#000000" data-fill-palette-color="accent"></path><path d="M80.727 57.539c-3.273 0.662-6.546 1.865-9.82 2.528-0.127 0.025-0.24 0.159-0.24 0.286 0 0.223 0 0.445 0 0.667 0 0.131 0.107 0.219 0.24 0.191 3.273-0.663 6.546-1.867 9.82-2.53 0.065-0.012 0.125-0.051 0.168-0.104 0.043-0.051 0.07-0.116 0.07-0.182 0-0.223 0-0.445 0-0.666 0-0.064-0.025-0.12-0.07-0.156C80.851 57.539 80.791 57.526 80.727 57.539z" fill="#000000" data-fill-palette-color="accent"></path><path d="M55.535 53.435c0 0.063 0.025 0.129 0.07 0.183 0.044 0.053 0.104 0.091 0.168 0.104 3.273 0.663 6.546 1.867 9.82 2.529 0.064 0.013 0.125-0.001 0.17-0.036 0.045-0.036 0.069-0.092 0.071-0.156 0-0.221-0.001-0.444-0.001-0.666 0-0.132-0.106-0.261-0.24-0.287-3.273-0.662-6.546-1.866-9.82-2.528-0.131-0.027-0.239 0.061-0.239 0.191C55.535 52.99 55.535 53.213 55.535 53.435z" fill="#000000" data-fill-palette-color="accent"></path><path d="M55.773 56.203c3.273 0.661 6.548 1.865 9.822 2.527 0.063 0.013 0.123 0 0.168-0.035 0.045-0.036 0.07-0.094 0.07-0.156 0-0.223 0-0.444 0-0.667-0.001-0.132-0.107-0.259-0.24-0.287-3.273-0.661-6.546-1.865-9.82-2.527-0.064-0.013-0.124-0.001-0.168 0.035-0.045 0.035-0.07 0.093-0.07 0.156 0 0.222 0 0.443 0 0.667 0.001 0.066 0.027 0.13 0.071 0.183C55.647 56.149 55.708 56.188 55.773 56.203z" fill="#000000" data-fill-palette-color="accent"></path><path d="M65.593 60.067c-3.273-0.663-6.546-1.866-9.82-2.528-0.064-0.013-0.124 0-0.168 0.035-0.045 0.036-0.07 0.092-0.07 0.156 0 0.221 0 0.443 0 0.666 0 0.065 0.027 0.131 0.07 0.182 0.043 0.053 0.103 0.092 0.168 0.104 3.273 0.663 6.546 1.867 9.82 2.53 0.133 0.027 0.24-0.061 0.24-0.191 0-0.222 0-0.444 0-0.667C65.833 60.227 65.72 60.093 65.593 60.067z" fill="#000000" data-fill-palette-color="accent"></path></g><path d="M76.422 68.066c-2.296 0.653-4.669 1.329-7.09 1.639-0.296 0.079-0.602 0.119-0.912 0.119-0.056 0-0.113-0.002-0.169-0.004-0.057 0.002-0.113 0.004-0.169 0.004-0.31 0-0.616-0.04-0.912-0.119-2.421-0.31-4.794-0.985-7.09-1.639-2.504-0.713-4.869-1.386-7.195-1.588-0.933-0.081-1.806-0.494-2.462-1.164-0.564-0.579-0.908-1.31-1.02-2.092H47.1V44.439h2.25v-3.481c0-0.994 0.405-1.958 1.112-2.648 0.671-0.654 1.556-1.016 2.491-1.016 0.105 0 0.21 0.005 0.315 0.014 2.748 0.238 5.431 1.003 8.025 1.742 2.419 0.689 4.708 1.342 6.958 1.566 2.173-0.217 4.387-0.835 6.716-1.498l-9.746-6.603-13.197-8.939c-0.611-0.414-1.316-0.623-2.022-0.623s-1.412 0.209-2.023 0.623l-13.195 8.939-13.197 8.939c-1.312 0.889-1.89 2.529-1.426 4.043 0.465 1.516 1.864 2.547 3.447 2.547h3.27v11.607c-1.681 0.234-2.989 1.627-3.096 3.346h-0.174c-1.99 0-3.605 1.613-3.605 3.605v6.836c0 1.992 1.615 3.607 3.605 3.607h52.788c1.991 0 3.605-1.615 3.605-3.607v-6.336C78.832 67.382 77.644 67.719 76.422 68.066zM41.691 63.223H35.89V44.439h5.801V63.223z" fill="#000000" data-fill-palette-color="accent"></path></svg></g></svg></g></svg></g><defs></defs></svg><rect width="395.5199999999999" height="132.73879504377834" fill="none" stroke="none" visibility="hidden"></rect></g></svg></g></svg>